<?xml version="1.0" encoding="UTF-8"?>
<svg width="60px" height="36px" viewBox="0 0 60 36" version="1.1" xmlns="http://www.w3.org/2000/svg" xmlns:xlink="http://www.w3.org/1999/xlink">
    <title>default-img</title>
    <g id="商城页面" stroke="none" stroke-width="1" fill="none" fill-rule="evenodd">
        <g id="编组备份" transform="translate(-27.000000, -76.000000)" fill="#FFFFFF">
            <g id="编组-2" transform="translate(12.000000, 49.000000)">
                <path d="M56.7448284,32.2997438 C65.2232167,31.4225448 66.9303951,38.6180982 70.5222095,46.0790777 C74.1140238,53.5400572 78.4836229,58.3848243 70.5222095,60.9183604 C62.560796,63.4518964 42.9674473,63.5200528 23.8910735,60.9183604 C11.109903,59.1752264 14.6506404,58.2009855 18.9186531,56.8848808 L19.3023925,56.7660773 C21.2908048,56.1472321 23.3352553,55.4481029 23.8910735,54.5586678 C25.6840353,51.6895222 29.1900662,45.7257615 34.4890589,43.9591802 C39.7880516,42.1925989 37.1385553,50.6469521 39.7880516,49.258924 C42.437548,47.8708959 48.26644,33.1769428 56.7448284,32.2997438 Z M30.2498647,27 C33.7604474,27 36.608656,29.8486123 36.608656,33.3596926 C36.608656,36.8707728 33.7604474,39.7193851 30.2498647,39.7193851 C26.7392821,39.7193851 23.8910735,36.8707728 23.8910735,33.3596926 C23.8910735,29.8486123 26.7392821,27 30.2498647,27 Z" id="default-img"></path>
            </g>
        </g>
    </g>
</svg>