<?xml version="1.0" encoding="UTF-8"?>
<svg width="22px" height="22px" viewBox="0 0 22 22" version="1.1" xmlns="http://www.w3.org/2000/svg" xmlns:xlink="http://www.w3.org/1999/xlink">
    <title>home@3x</title>
    <defs>
        <rect id="path-1" x="0" y="0" width="22" height="22"></rect>
        <linearGradient x1="0%" y1="133.401027%" x2="109.699605%" y2="-40.3689178%" id="linearGradient-3">
            <stop stop-color="#C0CAD9" offset="0%"></stop>
            <stop stop-color="#E3E5E9" offset="100%"></stop>
        </linearGradient>
        <path d="M11.213881,0.369436246 C10.4042699,-0.123145415 9.39573006,-0.123145415 8.58685037,0.369436246 L1.25354412,4.83304487 C0.476112732,5.30647792 0,6.162223 0,7.08531839 L0,17.1779601 C0,18.6259917 1.14896022,19.8 2.56559672,19.8 L6.95007572,19.8 L12.8499243,19.8 L17.2336719,19.8 C18.6510398,19.8 19.8,18.6259917 19.8,17.1779601 L19.8,7.08531839 C19.8,6.162223 19.3238873,5.30647792 18.5471872,4.83304487 L11.213881,0.369436246 Z" id="path-4"></path>
        <linearGradient x1="50%" y1="-38.6530131%" x2="50%" y2="100%" id="linearGradient-6">
            <stop stop-color="#FFFFFF" offset="0%"></stop>
            <stop stop-color="#FFFFFF" stop-opacity="0.705310315" offset="100%"></stop>
        </linearGradient>
    </defs>
    <g id="home" stroke="none" stroke-width="1" fill="none" fill-rule="evenodd">
        <rect id="矩形" fill="#FFFFFF" x="0" y="0" width="22" height="22"></rect>
        <g id="Home备份-5">
            <mask id="mask-2" fill="white">
                <use xlink:href="#path-1"></use>
            </mask>
            <use id="蒙版" fill-opacity="0" fill="#D8D8D8" xlink:href="#path-1"></use>
            <g id="Home" mask="url(#mask-2)">
                <g transform="translate(1.100000, 1.100000)">
                    <mask id="mask-5" fill="white">
                        <use xlink:href="#path-4"></use>
                    </mask>
                    <use id="home" stroke="none" fill="url(#linearGradient-3)" fill-rule="nonzero" xlink:href="#path-4"></use>
                    <rect id="矩形" stroke="none" fill="url(#linearGradient-6)" fill-rule="evenodd" opacity="0.867604167" mask="url(#mask-5)" x="8.4224405" y="9.86290075" width="3" height="6" rx="1.5"></rect>
                </g>
            </g>
        </g>
    </g>
</svg>