<?xml version="1.0" encoding="UTF-8"?>
<svg width="21px" height="19px" viewBox="0 0 21 19" version="1.1" xmlns="http://www.w3.org/2000/svg" xmlns:xlink="http://www.w3.org/1999/xlink">
    <title>xing</title>
    <g id="商城页面" stroke="none" stroke-width="1" fill="none" fill-rule="evenodd">
        <path d="M10.0346589,16.4946443 L5.53394175,18.8608113 C5.04509717,19.1178121 4.44047001,18.9298656 4.1834692,18.441021 C4.08113013,18.2463606 4.04581546,18.0233925 4.0829923,17.8066348 L4.94255278,12.7950127 C4.99819072,12.4706186 4.89064224,12.1396184 4.65495615,11.9098813 L1.01379951,8.36063073 C0.618315936,7.97512952 0.610223629,7.34201625 0.995724841,6.94653268 C1.14923345,6.78904904 1.35037586,6.68656186 1.56801289,6.65493735 L6.5999676,5.92375153 C6.92567776,5.87642307 7.20724335,5.6718537 7.35290536,5.37671023 L9.60326392,0.816985751 C9.84768622,0.321732091 10.4473121,0.118393092 10.9425657,0.362815385 C11.1397783,0.460145624 11.2994058,0.619773146 11.3967361,0.816985751 L13.6470946,5.37671023 C13.7927566,5.6718537 14.0743222,5.87642307 14.4000324,5.92375153 L19.4319871,6.65493735 C19.978532,6.73435497 20.3572134,7.24179782 20.2777958,7.78834268 C20.2461713,8.00597971 20.1436841,8.20712212 19.9862005,8.36063073 L16.3450438,11.9098813 C16.1093578,12.1396184 16.0018093,12.4706186 16.0574472,12.7950127 L16.9170077,17.8066348 C17.0103687,18.3509713 16.6447809,18.8679272 16.1004444,18.9612882 C15.8836868,18.9984651 15.6607187,18.9631504 15.4660582,18.8608113 L10.9653411,16.4946443 C10.6740171,16.3414862 10.3259829,16.3414862 10.0346589,16.4946443 Z" id="xing" fill="#EBBA24"></path>
    </g>
</svg>